<svg width="60" height="49" viewBox="0 0 60 49" fill="none" xmlns="http://www.w3.org/2000/svg">
<path d="M30.1996 0C27.3677 0 25.7436 1.48515 25.7436 1.48515C25.7436 1.48515 12.3766 13.3657 12.3772 13.3663V13.4162C12.215 13.3889 12.0511 13.3663 11.8818 13.3663H2.97089C1.3301 13.3663 0 14.6964 0 16.3372V30.6939C0 32.3352 1.3301 33.6642 2.97089 33.6642H11.8818C12.0511 33.6642 12.215 33.6416 12.3772 33.6143V33.6642L25.7436 46.0408C25.7436 46.0408 27.3677 47.5259 30.1996 47.5259C33.0303 47.5259 34.1602 46.197 34.1602 44.5556V2.9703C34.1602 1.3295 33.0303 0 30.1996 0ZM31.1893 42.0808C31.1893 44.5253 31.004 44.5556 28.7139 44.5556L17.6685 34.6539L13.1008 30.6939H12.3772H8.91089H7.42574H5.44574C3.80495 30.6939 2.97089 29.8592 2.97089 28.2184V18.8121C2.97089 18.1972 3.08792 17.6952 3.32079 17.3085C3.7099 16.6634 4.42099 16.3372 5.44574 16.3372H7.42574H12.3772H13.1418L16.7483 13.2855L28.7139 2.9703C31.004 2.9703 31.1893 2.9697 31.1893 5.44574V42.0808Z" fill="#1A4E99"/>
<path d="M45.3528 1.48515C45.3528 1.48515 43.7851 0.687927 43.1625 1.74119C42.4687 2.921 43.557 3.74317 43.557 3.74317C51.2726 7.09486 56.8556 15.3184 56.4089 24.2162C56.0067 32.2301 50.915 39.3048 44.0946 42.4337C44.0946 42.4337 42.5726 43.0616 43.0051 44.362C43.6098 45.9059 45.4526 44.9804 45.4526 44.9804C53.2948 41.4232 58.914 33.5572 59.3762 24.3648C59.8817 14.2919 54.0344 5.37506 45.3528 1.48515Z" fill="#1A4E99"/>
<path d="M51.9337 24.4872C52.2979 17.2391 48.1608 10.803 41.8501 8.11846C41.8501 8.11846 40.5236 7.52975 39.8476 8.51351C38.859 10.1264 40.2183 11.0103 40.2183 11.0103C45.563 13.1507 49.2711 18.2662 48.9676 24.3387C48.7151 29.365 45.0854 33.6369 40.9549 35.8616C40.9549 35.8616 39.768 36.4147 40.3608 37.8137C40.9157 38.9252 42.3147 38.4078 42.3147 38.4078C47.4628 35.7476 51.6218 30.6933 51.9337 24.4872Z" fill="#1A4E99"/>
<path d="M44.99 24.3523C45.4391 20.1766 42.8401 16.1055 39.053 14.7499C39.053 14.7499 37.4437 14.1564 36.9785 15.5222C36.4991 17.362 37.7508 17.5972 37.7508 17.5972C40.6183 18.2804 42.3613 21.0267 42.0375 24.0344C41.8094 26.144 40.3284 27.7717 38.5534 28.6384C38.608 28.6663 36.5354 29.1119 37.3041 30.9939C37.749 32.1998 39.7124 31.7501 39.7124 31.7501C42.53 30.5055 44.6365 27.635 44.99 24.3523Z" fill="#1A4E99"/>
</svg>
