<svg width="50" height="50" viewBox="0 0 50 50" fill="none" xmlns="http://www.w3.org/2000/svg">
<path d="M49.375 0H0.78125V2.96875H49.375V0Z" fill="#1A4E99"/>
<path d="M42.1875 35H7.8125C5.3125 35 3.125 32.9688 3.125 30.3125V0H46.875V30.3125C46.875 32.9688 44.8438 35 42.1875 35ZM6.09375 2.96875V30.3125C6.09375 31.25 6.875 31.875 7.65625 31.875H42.1875C43.125 31.875 43.75 31.0938 43.75 30.3125V2.96875H6.09375Z" fill="#1A4E99"/>
<path d="M26.4062 33.4376H23.4375V40.9376H26.4062V33.4376Z" fill="#1A4E99"/>
<path d="M25.0005 49.9999C22.0317 49.9999 19.688 47.6561 19.688 44.6874C19.688 41.7186 22.0317 39.3749 25.0005 39.3749C27.9692 39.3749 30.313 41.7186 30.313 44.6874C30.313 47.6561 27.9692 49.9999 25.0005 49.9999ZM25.0005 42.4999C23.7505 42.4999 22.813 43.4374 22.813 44.6874C22.813 45.9374 23.7505 46.8749 25.0005 46.8749C26.2505 46.8749 27.188 45.9374 27.188 44.6874C27.188 43.4374 26.2505 42.4999 25.0005 42.4999Z" fill="#1A4E99"/>
<path d="M12.0308 11.8749H9.06201V27.8124H12.0308V11.8749Z" fill="#1A4E99"/>
<path d="M17.8125 8.74994H14.8438V27.8124H17.8125V8.74994Z" fill="#1A4E99"/>
<path d="M23.5928 13.4374H20.624V27.6562H23.5928V13.4374Z" fill="#1A4E99"/>
<path d="M29.375 18.1249H26.4062V27.6562H29.375V18.1249Z" fill="#1A4E99"/>
<path d="M35.1553 8.74994H32.1865V27.8124H35.1553V8.74994Z" fill="#1A4E99"/>
<path d="M40.937 14.9999H37.9683V27.6562H40.937V14.9999Z" fill="#1A4E99"/>
</svg>
