<svg width="50" height="31" viewBox="0 0 50 31" fill="none" xmlns="http://www.w3.org/2000/svg">
<path d="M30.475 3.16003C31.2706 3.16003 32.0337 3.47611 32.5963 4.03871C33.1589 4.60132 33.475 5.36438 33.475 6.16003V13.21L37.975 10.625L47 5.43503V25.565L37.97 20.37L33.47 17.785V24.835C33.47 25.6307 33.1539 26.3937 32.5913 26.9564C32.0287 27.519 31.2656 27.835 30.47 27.835H6C5.20435 27.835 4.44129 27.519 3.87868 26.9564C3.31607 26.3937 3 25.6307 3 24.835V6.16003C3 5.36438 3.31607 4.60132 3.87868 4.03871C4.44129 3.47611 5.20435 3.16003 6 3.16003H30.475ZM30.475 0.160034H6C4.4087 0.160034 2.88258 0.792175 1.75736 1.91739C0.632141 3.04261 0 4.56874 0 6.16003L0 24.84C0 26.4313 0.632141 27.9575 1.75736 29.0827C2.88258 30.2079 4.4087 30.84 6 30.84H30.475C32.0663 30.84 33.5924 30.2079 34.7176 29.0827C35.8429 27.9575 36.475 26.4313 36.475 24.84V22.975L46.53 28.755C46.9926 29.0407 47.5216 29.201 48.065 29.22C49.205 29.22 49.995 28.31 49.995 26.745V4.24503C49.995 2.68003 49.205 1.77003 48.065 1.77003C47.5216 1.78885 46.9925 1.94913 46.53 2.23503L36.475 8.02503V6.16003C36.475 4.56874 35.8429 3.04261 34.7176 1.91739C33.5924 0.792175 32.0663 0.160034 30.475 0.160034Z" fill="#1A4E99"/>
</svg>
